<svg xmlns="http://www.w3.org/2000/svg" aria-hidden="true" style="position:absolute;width:0;height:0;overflow:hidden">
  <defs>
    <symbol id="icon-arrow" viewBox="0 0 32 32">
      <path fill="#e6eaf2" d="M29.821 0h1.552v31.03h-1.552V0z" style="fill:var(--color1, #e6eaf2)"/>
      <path fill="#e6eaf2" d="M31.373 0v1.552H.343V0h31.03z" style="fill:var(--color1, #e6eaf2)"/>
      <path fill="none" stroke="#e6eaf2" stroke-width=".97" d="M30.339 1.035.343 31.03" style="stroke:var(--color1, #e6eaf2)"/>
    </symbol>
    <symbol id="icon-close" viewBox="0 0 32 32">
      <path fill="#f7c549" d="m8.533 25.333-1.867-1.867 7.467-7.467-7.467-7.467 1.867-1.867L16 14.132l7.467-7.467 1.867 1.867-7.467 7.467 7.467 7.467-1.867 1.867L16 17.866l-7.467 7.467z" style="fill:var(--color2, #f7c549)"/>
    </symbol>
    <symbol id="icon-menu" viewBox="0 0 32 32">
      <path fill="#e6eaf2" d="M4 24v-2h24v2H4zm0-7v-2h24v2H4zm0-7V8h24v2H4z" style="fill:var(--color1, #e6eaf2)"/>
    </symbol>
  </defs>
</svg>
