<svg xmlns="http://www.w3.org/2000/svg" aria-hidden="true" style="position:absolute;width:0;height:0;overflow:hidden">
  <defs>
    <symbol id="icon-arrow" viewBox="0 0 32 32">
      <path fill="#e6eaf2" d="M29.821 0h1.552v31.03h-1.552V0z" style="fill:var(--color1, #e6eaf2)"/>
      <path fill="#e6eaf2" d="M31.373 0v1.552H.343V0h31.03z" style="fill:var(--color1, #e6eaf2)"/>
      <path fill="none" stroke="#e6eaf2" stroke-width=".97" d="M30.339 1.035.343 31.03" style="stroke:var(--color1, #e6eaf2)"/>
    </symbol>
    <symbol id="icon-close" viewBox="0 0 32 32">
      <path fill="#f7c549" d="m8.533 25.333-1.867-1.867 7.467-7.467-7.467-7.467 1.867-1.867L16 14.132l7.467-7.467 1.867 1.867-7.467 7.467 7.467 7.467-1.867 1.867L16 17.866l-7.467 7.467z" style="fill:var(--color2, #f7c549)"/>
    </symbol>
    <symbol id="icon-menu" viewBox="0 0 32 32">
      <path fill="#e6eaf2" d="M4 24v-2h24v2H4zm0-7v-2h24v2H4zm0-7V8h24v2H4z" style="fill:var(--color1, #e6eaf2)"/>
    </symbol>
    <symbol id="icon-arrow-left" viewBox="0 0 44 44" fill="none">
  <path d="M36.96 22C36.96 30.272 30.272 36.96 22 36.96C13.728 36.96 7.04004 30.272 7.04004 22C7.04004 13.728 13.728 7.03996 22 7.03996C30.272 7.03996 36.96 13.728 36.96 22ZM8.80004 22C8.80004 29.304 14.696 35.2 22 35.2C29.304 35.2 35.2 29.304 35.2 22C35.2 14.696 29.304 8.79996 22 8.79996C14.696 8.79996 8.80004 14.696 8.80004 22Z" fill="#E6EAF2" />
  <path d="M23.496 14.6959L16.192 21.9999L23.496 29.3039L22.264 30.5359L13.728 21.9999L22.264 13.4639L23.496 14.6959Z" fill="#E6EAF2" />
  <path d="M14.96 22.8799V21.1199H29.92V22.8799H14.96Z" fill="#E6EAF2" />
</symbol>
<symbol id="icon-arrow-right" viewBox="0 0 44 44" fill="none">
  <path d="M7.03996 22C7.03996 13.728 13.728 7.04004 22 7.04004C30.272 7.04004 36.96 13.728 36.96 22C36.96 30.272 30.272 36.96 22 36.96C13.728 36.96 7.03996 30.272 7.03996 22ZM35.2 22C35.2 14.696 29.304 8.80004 22 8.80004C14.696 8.80004 8.79996 14.696 8.79996 22C8.79996 29.304 14.696 35.2 22 35.2C29.304 35.2 35.2 29.304 35.2 22Z" fill="#E6EAF2" />
  <path d="M20.504 29.3041L27.808 22.0001L20.504 14.6961L21.736 13.4641L30.272 22.0001L21.736 30.5361L20.504 29.3041Z" fill="#E6EAF2" />
  <path d="M29.04 21.1201V22.8801H14.08V21.1201H29.04Z" fill="#E6EAF2" />
</symbol>
  </defs>
</svg>
